<?xml version="1.0" encoding="UTF-8"?><svg width="512" height="512" version="1.1" viewBox="0 0 512 512" xmlns="http://www.w3.org/2000/svg" xmlns:xlink="http://www.w3.org/1999/xlink"><!--Generated by IJSVG (https://github.com/iconjar/IJSVG)--><g transform="scale(5.12)"><path fill="#000" d="M75,43.5h-50c-0.829,0 -1.5,0.671 -1.5,1.5c0,0.829 0.671,1.5 1.5,1.5h50c0.828,0 1.5,-0.671 1.5,-1.5c0,-0.829 -0.672,-1.5 -1.5,-1.5Z"></path><path fill="#000" d="M40,53.5c-0.829,0 -1.5,0.672 -1.5,1.5v5c0,0.828 0.671,1.5 1.5,1.5c0.829,0 1.5,-0.672 1.5,-1.5v-5c0,-0.828 -0.671,-1.5 -1.5,-1.5Z"></path><path fill="#000" d="M40,63.5c-0.829,0 -1.5,0.672 -1.5,1.5v5c0,0.828 0.671,1.5 1.5,1.5c0.829,0 1.5,-0.672 1.5,-1.5v-5c0,-0.828 -0.671,-1.5 -1.5,-1.5Z"></path><path fill="#000" d="M40,73.5c-0.829,0 -1.5,0.672 -1.5,1.5v5c0,0.828 0.671,1.5 1.5,1.5c0.829,0 1.5,-0.672 1.5,-1.5v-5c0,-0.828 -0.671,-1.5 -1.5,-1.5Z"></path><path fill="#000" d="M40,83.5c-0.829,0 -1.5,0.672 -1.5,1.5v5c0,0.828 0.671,1.5 1.5,1.5c0.829,0 1.5,-0.672 1.5,-1.5v-5c0,-0.828 -0.671,-1.5 -1.5,-1.5Z"></path><path fill="#000" d="M50,53.5c-0.829,0 -1.5,0.672 -1.5,1.5v5c0,0.828 0.671,1.5 1.5,1.5c0.829,0 1.5,-0.672 1.5,-1.5v-5c0,-0.828 -0.671,-1.5 -1.5,-1.5Z"></path><path fill="#000" d="M50,63.5c-0.829,0 -1.5,0.672 -1.5,1.5v5c0,0.828 0.671,1.5 1.5,1.5c0.829,0 1.5,-0.672 1.5,-1.5v-5c0,-0.828 -0.671,-1.5 -1.5,-1.5Z"></path><path fill="#000" d="M50,73.5c-0.829,0 -1.5,0.672 -1.5,1.5v5c0,0.828 0.671,1.5 1.5,1.5c0.829,0 1.5,-0.672 1.5,-1.5v-5c0,-0.828 -0.671,-1.5 -1.5,-1.5Z"></path><path fill="#000" d="M50,83.5c-0.829,0 -1.5,0.672 -1.5,1.5v5c0,0.828 0.671,1.5 1.5,1.5c0.829,0 1.5,-0.672 1.5,-1.5v-5c0,-0.828 -0.671,-1.5 -1.5,-1.5Z"></path><path fill="#000" d="M60,53.5c-0.828,0 -1.5,0.672 -1.5,1.5v5c0,0.828 0.672,1.5 1.5,1.5c0.828,0 1.5,-0.672 1.5,-1.5v-5c0,-0.828 -0.672,-1.5 -1.5,-1.5Z"></path><path fill="#000" d="M60,63.5c-0.828,0 -1.5,0.672 -1.5,1.5v5c0,0.828 0.672,1.5 1.5,1.5c0.828,0 1.5,-0.672 1.5,-1.5v-5c0,-0.828 -0.672,-1.5 -1.5,-1.5Z"></path><path fill="#000" d="M60,73.5c-0.828,0 -1.5,0.672 -1.5,1.5v5c0,0.828 0.672,1.5 1.5,1.5c0.828,0 1.5,-0.672 1.5,-1.5v-5c0,-0.828 -0.672,-1.5 -1.5,-1.5Z"></path><path fill="#000" d="M60,83.5c-0.828,0 -1.5,0.672 -1.5,1.5v5c0,0.828 0.672,1.5 1.5,1.5c0.828,0 1.5,-0.672 1.5,-1.5v-5c0,-0.828 -0.672,-1.5 -1.5,-1.5Z"></path><path fill="#000" d="M70,53.5c-0.828,0 -1.5,0.672 -1.5,1.5v5c0,0.828 0.672,1.5 1.5,1.5c0.828,0 1.5,-0.672 1.5,-1.5v-5c0,-0.828 -0.672,-1.5 -1.5,-1.5Z"></path><path fill="#000" d="M70,63.5c-0.828,0 -1.5,0.672 -1.5,1.5v5c0,0.828 0.672,1.5 1.5,1.5c0.828,0 1.5,-0.672 1.5,-1.5v-5c0,-0.828 -0.672,-1.5 -1.5,-1.5Z"></path><path fill="#000" d="M70,73.5c-0.828,0 -1.5,0.672 -1.5,1.5v5c0,0.828 0.672,1.5 1.5,1.5c0.828,0 1.5,-0.672 1.5,-1.5v-5c0,-0.828 -0.672,-1.5 -1.5,-1.5Z"></path><path fill="#000" d="M70,83.5c-0.828,0 -1.5,0.672 -1.5,1.5v5c0,0.828 0.672,1.5 1.5,1.5c0.828,0 1.5,-0.672 1.5,-1.5v-5c0,-0.828 -0.672,-1.5 -1.5,-1.5Z"></path><path fill="#000" d="M71.5,40c0,-6.177 -8.674,-11.06 -20,-11.461v-13.539c0,-0.829 -0.671,-1.5 -1.5,-1.5c-0.829,0 -1.5,0.671 -1.5,1.5v13.539c-11.327,0.401 -20,5.284 -20,11.461v1.5h43v-1.5Zm-39.678,-1.5c1.537,-3.607 8.456,-7 18.178,-7c9.722,0 16.641,3.393 18.178,7h-36.356Z"></path><path fill="#000" d="M30,53.5c-0.829,0 -1.5,0.672 -1.5,1.5v5c0,0.828 0.671,1.5 1.5,1.5c0.829,0 1.5,-0.672 1.5,-1.5v-5c0,-0.828 -0.671,-1.5 -1.5,-1.5Z"></path><path fill="#000" d="M30,63.5c-0.829,0 -1.5,0.672 -1.5,1.5v5c0,0.828 0.671,1.5 1.5,1.5c0.829,0 1.5,-0.672 1.5,-1.5v-5c0,-0.828 -0.671,-1.5 -1.5,-1.5Z"></path><path fill="#000" d="M30,73.5c-0.829,0 -1.5,0.672 -1.5,1.5v5c0,0.828 0.671,1.5 1.5,1.5c0.829,0 1.5,-0.672 1.5,-1.5v-5c0,-0.828 -0.671,-1.5 -1.5,-1.5Z"></path><path fill="#000" d="M30,83.5c-0.829,0 -1.5,0.672 -1.5,1.5v5c0,0.828 0.671,1.5 1.5,1.5c0.829,0 1.5,-0.672 1.5,-1.5v-5c0,-0.828 -0.671,-1.5 -1.5,-1.5Z"></path></g></svg>